PathFileType	4	(X/Y/Z)	C:/Users/beibeiliu/ov580/test_trc/capture2\sequence.5_training_dense_left.trc
DataRate	CameraRate	NumFrames	NumMarkers	Units	OrigDataRate	OrigDataStartFrame	OrigNumFrames
120	120	18	19	mm	120	88	350
Frame#	Time	ThumbCMC			ThumbMCP			ThumbIP			ThumbTip			IndexMCP			IndexPIP			IndexTip			MiddleMCP			MiddlePIP			MiddleTip			RingMCP			RingPIP			RingTip			PinkyMCP			PinkyPIP			PinkyTip			BackHand1			BackHand2			BackHand3	
		X0	Y0	Z0	X1	Y1	Z1	X2	Y2	Z2	X3	Y3	Z3	X4	Y4	Z4	X5	Y5	Z5	X6	Y6	Z6	X7	Y7	Z7	X8	Y8	Z8	X9	Y9	Z9	X10	Y10	Z10	X11	Y11	Z11	X12	Y12	Z12	X13	Y13	Z13	X14	Y14	Z14	X15	Y15	Z15	X16	Y16	Z16	X17	Y17	Z17	X18	Y18	Z18	
87	0.725	-143.449	81.3057	-30.8633	-114.421	77.3054	-52.191	-104.308	67.7189	-74.7728	-97.4798	53.1976	-96.0536	-140.798	71.3379	-104.972	-120.205	69.1875	-119.183	-96.4028	63.2784	-132.478	-134.514	49.5279	-102.243	-105.352	47.4255	-90.1262	-117.175	51.6976	-56.7332	-132.065	27.3622	-90.0288	-108.085	34.4086	-70.9983	-126.302	45.6061	-43.6397	-135.61	16.3135	-78.9114	-115.391	24.6515	-56.7782	-135.046	36.576	-36.8033	-180.71	30.8022	-57.7256	-187.559	35.8549	-25.6312	-180.464	66.7184	-43.7744	
88	0.733333	-142.33	82.2059	-33.1019	-115.385	77.5074	-51.3188	-99.9641	70.9798	-78.5548	-99.7321	49.9857	-96.0093	-140.68	71.4166	-102.257	-114.525	70.658	-119.485	-96.036	61.3252	-129.981	-132.353	46.2269	-102.522	-104.756	44.7498	-87.2226	-115.726	52.746	-56.4481	-133.183	27.4468	-88.9598	-108.36	33.7261	-72.1727	-124.672	43.798	-44.2489	-135.184	17.1426	-79.7491	-115.219	24.4343	-60.3732	-132.619	34.975	-35.658	-180.127	34.5434	-56.9146	-187.157	36.1076	-27.9375	-177.137	68.2756	-47.5421	
89	0.741667	-142.68	81.2256	-33.0565	-116.34	77.5943	-51.7605	-103.12	69.1363	-76.4799	-98.3087	54.8689	-93.4614	-140.16	71.5836	-102.751	-115.752	69.5011	-119.012	-93.5826	64.9613	-131.928	-132.791	47.2831	-102.343	-104.614	47.9354	-87.6828	-118.004	52.168	-54.7848	-131.599	31.0459	-90.1166	-107.49	33.1957	-70.0418	-125.296	46.6444	-45.1568	-136.552	13.8007	-78.6418	-115.515	25.0978	-58.5546	-135.094	40.3603	-37.7746	-179.435	31.6157	-57.183	-187.585	35.0823	-27.1186	-178.533	68.6819	-46.878	
90	0.75	-142.956	84.3829	-30.5832	-117.261	76.7942	-51.5217	-100.415	71.0124	-78.2241	-101.129	51.1675	-95.1326	-144.986	70.6085	-102.897	-124.326	69.8079	-119.783	-99.3596	63.0282	-135.266	-138.004	48.8623	-99.8373	-106.981	46.0586	-91.4565	-120.168	53.0884	-55.0855	-135.025	31.9934	-89.7031	-108.246	34.8924	-70.1716	-130.28	45.8114	-42.0518	-132.535	14.6176	-78.2387	-115.456	26.288	-60.3832	-132.233	39.7843	-37.9043	-178.428	36.2977	-56.8528	-185.539	34.3646	-28.5177	-180.214	70.3222	-44.8998	
91	0.758333	-143.912	84.991	-32.2174	-115.377	80.3962	-52.2181	-101.13	72.2148	-75.6032	-101.167	52.3582	-92.586	-145.966	73.8687	-107.434	-129.804	69.6508	-123.985	-109.862	64.9785	-141.114	-139.742	51.3181	-100.9	-106.857	48.6676	-88.4199	-120.976	53.4564	-55.7292	-130.492	31.4302	-91.7322	-109.689	33.0002	-70.6572	-128.559	43.8573	-43.822	-138.61	16.3508	-78.3175	-116.391	25.0355	-58.0081	-135.437	39.1978	-34.2269	-180.2	35.6037	-58.4826	-187.311	36.9481	-29.7304	-178.964	67.4477	-46.4995	
92	0.766667	-143.959	84.3451	-32.0285	-117.949	78.1607	-51.0919	-103.167	71.182	-78.9043	-104.705	49.4178	-93.2143	-152.87	71.6362	-104.425	-137.993	70.4151	-128.73	-124.327	64.3874	-145.959	-140.295	46.9242	-102.109	-109.702	45.6524	-91.0673	-121.899	55.8372	-56.5493	-133.292	29.38	-90.9692	-110.517	34.9568	-69.5414	-126.926	46.9658	-45.3732	-136.207	15.5313	-79.4241	-116.447	26.5324	-59.5812	-136.86	41.6566	-36.8554	-180.166	31.8489	-56.9218	-186.814	38.4829	-24.7441	-180.116	64.2807	-42.1407	
93	0.775	-145.223	83.1316	-32.7589	-118.289	78.7682	-56.0584	-105.921	71.1054	-76.456	-102.283	53.0504	-96.5129	-158.828	74.976	-104.077	-147.819	72.5009	-128.101	-136.808	67.698	-153.1	-138.932	49.9977	-104.397	-110.862	47.9599	-94.0556	-121.79	52.5864	-58.1595	-132.501	29.7159	-91.4946	-112.276	35.2637	-72.7285	-130.614	49.663	-45.9816	-137.926	19.4598	-80.605	-117.641	29.2002	-60.4932	-138.941	41.3968	-37.6846	-182.111	36.0936	-57.641	-185.078	39.6908	-26.5781	-182.022	66.7801	-43.1707	
94	0.783333	-148.568	81.3415	-32.8319	-118.072	82.2197	-55.6426	-106.32	72.4048	-82.3717	-106.966	52.7646	-95.8503	-162.386	74.7125	-107.531	-155.954	69.2098	-129.463	-149.616	66.7806	-152.109	-142.108	51.3148	-105.322	-112.312	50.8491	-93.6845	-124.086	53.687	-57.3053	-136.071	31.3847	-91.9569	-114.011	38.0764	-74.6578	-132.73	47.3651	-43.8205	-139.084	19.6079	-80.4042	-118.549	24.1556	-60.7277	-138.433	40.7241	-36.036	-181.295	35.6394	-55.5364	-187.627	37.0465	-25.7181	-182.786	63.9319	-43.0161	
95	0.791667	-149.338	81.6709	-34.5027	-120.519	81.9928	-55.1265	-111.774	71.0596	-82.798	-106.889	53.3738	-98.8704	-167.854	71.3875	-108.736	-162.562	66.7004	-131.821	-159.373	61.5131	-156.847	-145.493	46.3341	-105.236	-116.298	48.6841	-98.608	-124.904	53.0274	-59.7367	-137.785	29.1312	-91.8268	-115.673	35.4116	-75.9101	-129.944	46.3464	-46.9716	-141.767	14.1378	-80.1138	-120.243	28.7322	-58.6169	-139.663	42.8954	-39.566	-184.236	31.271	-57.75	-185.438	37.0124	-24.2786	-184.859	68.3187	-43.9675	
96	0.8	-149.392	82.7775	-36.8768	-124.104	80.1594	-59.4175	-109.915	72.8188	-87.2926	-111.88	50.2241	-99.9571	-171.13	70.3963	-105.745	-168.141	69.4592	-131.653	-168.2	60.2722	-156.204	-150.154	46.2912	-102.687	-117.69	46.617	-96.8217	-123.74	54.3695	-62.5612	-140.232	32.6934	-93.5639	-115.811	39.4448	-75.3468	-131.408	47.7293	-47.4811	-139.619	18.2583	-81.5414	-121.509	30.4881	-61.6993	-139.197	40.1158	-38.2476	-183.853	30.1289	-56.032	-188.104	33.5365	-25.4689	-183.503	67.9085	-40.7909	
97	0.808333	-149.892	82.253	-36.4999	-123.629	81.6378	-59.3644	-113.716	72.161	-83.0626	-113.608	48.2562	-102.273	-174.528	71.3077	-103.009	-172.062	67.7914	-132.649	-173.362	60.7332	-156.114	-151.245	44.4973	-103.277	-118.77	49.1303	-97.1368	-126.043	58.2553	-63.3962	-141.816	31.9803	-93.7062	-116.562	36.5212	-76.0175	-131.493	47.6365	-47.3001	-141.25	17.6212	-81.8558	-121.426	32.1869	-63.3373	-139.422	42.7479	-38.0637	-185.2	33.4043	-55.7839	-185.124	33.8754	-20.4903	-184.388	64.3021	-43.7866	
98	0.816667	-150.804	85.6226	-37.0686	-122.545	84.3029	-60.4387	-113.581	72.321	-88.7892	-116.009	48.8652	-100.11	-176.097	66.5018	-103.252	-174.376	64.2212	-132.014	-176.925	57.688	-153.17	-152.057	44.8199	-104.206	-122.111	48.9897	-101.7	-128.977	58.1555	-63.0819	-142.156	29.6508	-93.2347	-117.681	35.4019	-78.0417	-130.086	48.8024	-50.0395	-142.046	17.3035	-80.9599	-122.414	31.8879	-64.5282	-139.661	43.3625	-37.7314	-184.026	30.2562	-55.4545	-184.71	32.2935	-20.1772	-184.339	66.0134	-39.4705	
99	0.825	-152.545	81.5683	-40.7271	-125.632	81.725	-63.3304	-113.572	74.3807	-86.68	-113.462	50.5502	-101.126	-176.861	63.8962	-106.393	-175.869	61.83	-128.248	-177.759	54.6134	-153.649	-153.294	43.301	-103.879	-121.046	49.1918	-98.6837	-129.742	58.8205	-63.1553	-140.481	28.1521	-93.2428	-118.14	39.0269	-78.5135	-131.536	51.3283	-50.5529	-144.865	17.0462	-80.6998	-121.875	29.5618	-65.3568	-137.498	42.1773	-41.0777	-185.514	27.3488	-53.4508	-185.591	33.2075	-23.2176	-187.915	62.1346	-39.5058	
100	0.833333	-152.536	80.9466	-35.1905	-125.088	82.6739	-62.7211	-114.29	74.0777	-85.1998	-112.489	51.5731	-102.69	-175.824	64.1542	-104.692	-173.688	59.64	-127.705	-176.453	50.6301	-154.496	-149.077	41.9377	-106.511	-120.447	46.5583	-99.5764	-128.621	59.0365	-63.9302	-143.549	28.203	-92.7311	-118.001	38.1763	-79.1093	-132.059	49.5388	-47.6584	-140.349	13.0587	-79.6024	-121.604	29.8882	-64.793	-137.666	42.1158	-39.1551	-184.744	26.409	-54.4644	-185.441	34.3639	-19.9412	-185.542	63.4519	-41.7558	
101	0.841667	-152.631	81.3843	-40.8374	-127.178	78.7894	-59.5942	-116.048	70.1	-84.0274	-112.919	50.2846	-100.59	-174.6	62.6851	-105.774	-171.293	59.2603	-128.157	-172.656	46.9583	-155.826	-151.045	41.9812	-103.34	-118.355	45.0768	-95.3516	-126.462	52.8932	-62.824	-140.859	27.8932	-92.8918	-115.47	36.8184	-73.4486	-130.569	47.9326	-47.1994	-139.276	12.6839	-79.1869	-121.218	28.9427	-64.5303	-139.21	40.4417	-36.917	-184.937	26.0932	-54.0802	-184.671	30.0699	-24.4287	-187.666	62.168	-45.7445	
102	0.85	-152.515	81.4476	-40.7575	-125.577	79.6457	-63.0947	-113.677	70.1113	-83.7111	-110.22	48.5291	-99.9494	-172.521	61.1119	-109.451	-167.505	56.3578	-131.087	-165.209	44.6412	-152.129	-146.44	38.2554	-104.461	-116.651	47.5332	-97.5002	-124.486	54.2551	-61.933	-138.338	23.7904	-90.2765	-114.723	37.7138	-73.8022	-130.061	46.3671	-45.4768	-139.536	13.3311	-77.5644	-120.462	30.7094	-61.2698	-139.305	38.9067	-35.6046	-182.382	23.1771	-54.772	-184.711	32.4056	-25.2387	-186.717	57.5966	-45.5783	
103	0.858333	-151.896	77.0013	-39.1693	-125.923	78.3002	-59.0633	-110.451	71.9128	-82.6559	-107.331	49.1455	-99.9772	-168.181	57.0465	-107.791	-160.327	52.283	-131.838	-153.622	43.8882	-155.282	-143.857	38.7244	-103.242	-113.212	44.552	-93.0325	-121.318	54.1889	-62.251	-135.888	26.3138	-90.6078	-112.795	37.1678	-73.8771	-130.809	47.1155	-45.1379	-134.926	12.9861	-77.8232	-118.661	30.6795	-59.9626	-139.566	41.2146	-35.9909	-179.562	22.7855	-55.4491	-183.933	30.3462	-25.6966	-184.584	56.133	-45.5042	
104	0.866667	-151.975	77.5996	-36.3958	-124.944	76.755	-59.2696	-108.479	71.1777	-81.8107	-105.12	47.563	-100.252	-162.157	57.5571	-108.647	-149.367	50.6944	-132.051	-138.164	41.0092	-154.113	-140.545	36.3728	-101.557	-110.777	43.5502	-93.002	-124.083	54.9959	-58.5746	-129.876	23.9934	-89.8971	-110.087	35.4745	-73.5978	-128.859	48.0049	-45.5443	-135.829	10.867	-75.7473	-116.193	28.3643	-59.7933	-135.526	38.5362	-34.8694	-179.831	20.4135	-55.8229	-185.972	26.787	-21.2525	-182.766	58.9918	-43.9872	
